<!DOCTYPE svg PUBLIC "-//W3C//DTD SVG 1.1//EN" "http://www.w3.org/Graphics/SVG/1.1/DTD/svg11.dtd">
<!-- Uploaded to: SVG Repo, www.svgrepo.com, Transformed by: SVG Repo Mixer Tools -->
<svg width="193px" height="193px" viewBox="-13.64 -13.64 103.08 103.08" xmlns="http://www.w3.org/2000/svg" fill="#420c42" stroke="#420c42" stroke-width="3.4111800000000003">
<g id="SVGRepo_bgCarrier" stroke-width="0"/>
<g id="SVGRepo_tracerCarrier" stroke-linecap="round" stroke-linejoin="round" stroke="#CCCCCC" stroke-width="8.490048000000002"> <g id="Group_67" data-name="Group 67" transform="translate(-798.203 -587.815)"> <path id="Path_59" data-name="Path 59" d="M798.2,589.314a1.5,1.5,0,0,1,2.561-1.06l33.56,33.556a2.528,2.528,0,0,0,3.564,0l33.558-33.556a1.5,1.5,0,1,1,2.121,2.121l-33.558,33.557a5.53,5.53,0,0,1-7.807,0l-33.56-33.557A1.5,1.5,0,0,1,798.2,589.314Z" fill="#420c42"/> </g> </g>
<g id="SVGRepo_iconCarrier"> <g id="Group_67" data-name="Group 67" transform="translate(-798.203 -587.815)"> <path id="Path_59" data-name="Path 59" d="M798.2,589.314a1.5,1.5,0,0,1,2.561-1.06l33.56,33.556a2.528,2.528,0,0,0,3.564,0l33.558-33.556a1.5,1.5,0,1,1,2.121,2.121l-33.558,33.557a5.53,5.53,0,0,1-7.807,0l-33.56-33.557A1.5,1.5,0,0,1,798.2,589.314Z" fill="#420c42"/> </g> </g>
</svg>